<?xml version="1.0" encoding="utf-8"?>
<!-- Generator: Adobe Illustrator 21.1.0, SVG Export Plug-In . SVG Version: 6.00 Build 0)  -->
<svg version="1.1" id="Layer_1" xmlns="http://www.w3.org/2000/svg" xmlns:xlink="http://www.w3.org/1999/xlink" x="0px" y="0px"
	 viewBox="0 0 307.4 200" style="enable-background:new 0 0 307.4 200;" xml:space="preserve">
<style type="text/css">
	.st0{fill:#1A428A;}
	.st1{fill:#AA182C;}
</style>
<path class="st0" d="M207.9,86.1c-2.4,0-4.3,1.9-4.3,4.2c0,0,0,0,0,0c-3.4-2.8-7.6-4.4-12-4.3c-10.6,0-19,8.7-19,19.8
	s8.3,19.8,19,19.8c4.4,0,8.6-1.5,12-4.3c0.2,2.4,2.2,4.2,4.6,4c2.2-0.1,4-2,4-4.2V90.4C212.2,88,210.3,86.1,207.9,86.1
	C208,86.1,207.9,86.1,207.9,86.1z M203.6,105.3v0.5c0,6.6-4.9,11.8-11.1,11.8s-11.1-5.2-11.1-11.8s4.9-11.8,11.1-11.8
	C198.5,94.1,203.3,98.9,203.6,105.3z"/>
<path class="st0" d="M187.6,76.3c8.9,0,14.9-4.9,14.9-15l0,0c0-0.6-0.4-1-1-1h-6.9c-0.6,0-1,0.4-1,1l0,0c0,5-2.5,6.8-6.1,6.8
	s-6.1-1.9-6.1-6.8V45.1h9.7c2.2,0,4-1.8,4-4V41c0-2.2-1.7-3.9-3.9-3.9h-9.8V26.7c0-2.4-1.9-4.3-4.3-4.3c0,0,0,0,0,0l0,0
	c-2.5,0-4.5,2-4.5,4.5c0,0,0,0,0,0v34.5C172.6,71.4,178.7,76.3,187.6,76.3z"/>
<path class="st0" d="M104.6,149.2c0-0.2,0.1-0.3,0.3-0.3h1.7c0.2,0,0.4,0,0.6,0.1c0.2,0.1,0.4,0.1,0.5,0.3c0.1,0.1,0.3,0.3,0.3,0.4
	c0.1,0.2,0.1,0.4,0.1,0.6c0,0.2-0.1,0.5-0.2,0.7c-0.1,0.2-0.3,0.4-0.5,0.5l0,0c0.3,0.1,0.5,0.3,0.7,0.5c0.2,0.2,0.2,0.5,0.2,0.8
	c0,0.2,0,0.5-0.1,0.7c-0.1,0.2-0.2,0.3-0.4,0.5c-0.2,0.1-0.4,0.2-0.6,0.3c-0.2,0.1-0.5,0.1-0.7,0.1h-1.7c-0.1,0-0.2-0.1-0.3-0.2
	c0,0,0,0,0-0.1L104.6,149.2z M106.5,151.3c0.2,0,0.4-0.1,0.6-0.2c0.1-0.2,0.2-0.4,0.2-0.6c0-0.4-0.3-0.8-0.7-0.8c0,0-0.1,0-0.1,0
	h-1.1v1.6L106.5,151.3z M106.6,153.8c0.3,0,0.5-0.1,0.7-0.3c0.2-0.2,0.3-0.4,0.3-0.7c0-0.3-0.1-0.5-0.3-0.7
	c-0.2-0.2-0.4-0.3-0.7-0.3h-1.2v1.9L106.6,153.8z"/>
<path class="st0" d="M108.9,155.4c0.1,0,0.1,0,0.2,0l0.1,0.1c0.1,0,0.1,0,0.2,0c0.2,0,0.3-0.1,0.4-0.2c0.1-0.1,0.2-0.3,0.3-0.4
	l0.2-0.4l-1.5-3.6c0-0.1,0-0.2,0-0.2c0-0.1,0.1-0.1,0.2-0.1h0.3c0.1,0,0.2,0.1,0.3,0.2l0.9,2.4c0,0,0,0.1,0.1,0.2c0,0,0,0.1,0,0.1
	c0,0.1,0,0.1,0,0.2l0,0v-0.1c0-0.1,0-0.1,0-0.2c0-0.1,0-0.1,0-0.2l0.9-2.4c0-0.1,0.2-0.2,0.3-0.2h0.3c0.1,0,0.2,0,0.2,0.1
	c0,0.1,0,0.2,0,0.2l-1.7,4.3c-0.1,0.3-0.3,0.5-0.5,0.7c-0.2,0.2-0.5,0.2-0.8,0.2c-0.1,0-0.2,0-0.3,0l-0.2-0.1
	c-0.1,0-0.1-0.1-0.1-0.1c0-0.1,0-0.1,0-0.2l0.1-0.1C108.8,155.4,108.9,155.4,108.9,155.4z"/>
<path class="st0" d="M115.2,149.2c0-0.2,0.1-0.3,0.3-0.3h1.7c0.2,0,0.4,0,0.6,0.1c0.2,0.1,0.4,0.1,0.5,0.3c0.1,0.1,0.2,0.3,0.3,0.4
	c0.1,0.2,0.1,0.4,0.1,0.6c0,0.2-0.1,0.5-0.2,0.7c-0.1,0.2-0.3,0.4-0.5,0.5l0,0c0.3,0.1,0.5,0.3,0.7,0.5c0.2,0.2,0.2,0.5,0.2,0.8
	c0,0.2,0,0.5-0.2,0.7c-0.2,0.4-0.5,0.7-0.9,0.8c-0.2,0.1-0.5,0.1-0.7,0.1h-1.7c-0.1,0-0.2-0.1-0.3-0.2c0,0,0,0,0-0.1V149.2z
	 M117.1,151.3c0.2,0,0.4-0.1,0.6-0.2c0.2-0.2,0.2-0.4,0.2-0.6c0-0.2-0.1-0.4-0.2-0.6c-0.2-0.2-0.4-0.2-0.6-0.2H116v1.6L117.1,151.3z
	 M117.2,153.8c0.3,0,0.5-0.1,0.7-0.3c0.2-0.2,0.3-0.4,0.3-0.7c0-0.3-0.1-0.5-0.3-0.7c-0.2-0.2-0.4-0.3-0.7-0.3H116v1.9L117.2,153.8z
	"/>
<path class="st0" d="M120,149.2c0-0.2,0.1-0.3,0.3-0.3h1.6c0.4,0,0.8,0.1,1.1,0.2c0.7,0.2,1.2,0.7,1.4,1.4c0.3,0.8,0.3,1.6,0,2.3
	c-0.1,0.3-0.3,0.6-0.6,0.9c-0.2,0.2-0.5,0.4-0.9,0.5c-0.4,0.1-0.8,0.2-1.1,0.2h-1.6c-0.1,0-0.2-0.1-0.3-0.2c0,0,0,0,0-0.1V149.2z
	 M121.8,153.8c0.3,0,0.6,0,0.8-0.1c0.2-0.1,0.5-0.2,0.7-0.4c0.2-0.2,0.3-0.4,0.4-0.6c0.1-0.3,0.1-0.6,0.1-0.9c0-0.3,0-0.6-0.2-0.9
	c-0.1-0.2-0.2-0.5-0.4-0.6c-0.2-0.2-0.4-0.3-0.7-0.4c-0.3-0.1-0.5-0.1-0.8-0.1h-1v4.1L121.8,153.8z"/>
<path class="st0" d="M125.9,149.2c0-0.1,0.1-0.2,0.2-0.2c0,0,0,0,0,0h0.3c0.1,0,0.3,0.1,0.3,0.2l1.2,2.8l0.1,0.2
	c0,0.1,0,0.2,0.1,0.2l0.1,0.3l0,0c0-0.1,0-0.2,0.1-0.3c0-0.1,0-0.1,0.1-0.2l0.1-0.2l1.2-2.8c0-0.1,0.2-0.2,0.3-0.2h0.4
	c0.1,0,0.2,0.1,0.3,0.2c0,0,0,0,0,0l0.4,5c0,0.2-0.1,0.3-0.3,0.3h-0.3c-0.1,0-0.2-0.1-0.3-0.2c0,0,0,0,0,0L130,151
	c0-0.1,0-0.2,0-0.3v-0.5l0,0c0,0.1-0.1,0.2-0.1,0.3c0,0.1-0.1,0.2-0.1,0.3c0,0.1-0.1,0.2-0.1,0.3l-1,2.3c0,0.1-0.2,0.2-0.3,0.2h-0.3
	c-0.1,0-0.3-0.1-0.3-0.2l-1-2.3l-0.1-0.3c0-0.1,0-0.2-0.1-0.3c0-0.1-0.1-0.2-0.1-0.3l0,0v0.6c0,0.1,0,0.2,0,0.3l-0.2,3.2
	c0,0.1-0.1,0.3-0.2,0.3c0,0,0,0,0,0h-0.3c-0.1,0-0.2-0.1-0.3-0.2c0,0,0,0,0-0.1L125.9,149.2z"/>
<path class="st0" d="M132,154c-0.1-0.1-0.1-0.2,0-0.3c0,0,0,0,0,0l0.1-0.2c0.1-0.1,0.2-0.1,0.3,0c0,0,0,0,0,0c0.1,0,0.1,0.1,0.2,0.1
	c0.1,0.1,0.2,0.1,0.3,0.1c0.1,0.1,0.2,0.1,0.3,0.1c0.1,0,0.3,0.1,0.4,0.1c0.3,0,0.5-0.1,0.7-0.2c0.2-0.1,0.3-0.3,0.3-0.6
	c0-0.2-0.1-0.4-0.2-0.5c-0.1-0.1-0.3-0.3-0.5-0.3c-0.2-0.1-0.4-0.2-0.6-0.3c-0.2-0.1-0.4-0.2-0.6-0.3c-0.2-0.1-0.4-0.3-0.5-0.5
	c-0.1-0.2-0.2-0.5-0.2-0.7c0-0.2,0-0.4,0.1-0.6c0.1-0.2,0.2-0.4,0.4-0.5c0.1-0.1,0.3-0.3,0.5-0.4c0.2-0.1,0.5-0.1,0.7-0.1
	c0.2,0,0.3,0,0.5,0.1c0.1,0,0.3,0.1,0.4,0.1c0.1,0,0.2,0.1,0.3,0.1l0.2,0.1c0.1,0.1,0.2,0.2,0.1,0.3c0,0,0,0,0,0l-0.1,0.2
	c0,0.1-0.1,0.1-0.2,0.1c-0.1,0-0.1,0-0.2-0.1l-0.4-0.2c-0.2-0.1-0.4-0.1-0.6-0.1c-0.3,0-0.5,0.1-0.7,0.2c-0.2,0.1-0.3,0.3-0.3,0.6
	c0,0.2,0.1,0.4,0.2,0.5c0.1,0.1,0.3,0.3,0.5,0.3c0.2,0.1,0.4,0.2,0.6,0.3c0.2,0.1,0.4,0.2,0.6,0.3c0.2,0.1,0.4,0.3,0.5,0.5
	c0.1,0.2,0.2,0.5,0.2,0.7c0,0.2,0,0.4-0.1,0.6c-0.1,0.2-0.2,0.4-0.3,0.5c-0.2,0.1-0.3,0.3-0.6,0.3c-0.2,0.1-0.5,0.1-0.7,0.1
	c-0.2,0-0.4,0-0.6-0.1c-0.2,0-0.3-0.1-0.5-0.1c-0.1,0-0.3-0.1-0.4-0.2L132,154z"/>
<path class="st0" d="M45.4,22.4c-2.5,0-4.5,2.1-4.5,4.6c0,0,0,0,0,0v17.6H19.3V27c-0.1-2.5-2.3-4.5-4.8-4.4c-2.4,0.1-4.3,2-4.4,4.4
	v44.7c0.1,2.5,2.3,4.5,4.8,4.4c2.4-0.1,4.3-2,4.4-4.4V53.1h21.6v18.6c0,2.5,2,4.5,4.5,4.5c2.5,0,4.5-2,4.5-4.5c0,0,0,0,0,0V27
	c0-2.5-1.9-4.6-4.4-4.6C45.5,22.4,45.5,22.4,45.4,22.4z"/>
<path class="st0" d="M122.8,76.3c4.3,0,8.5-1.5,11.9-4.2c0.1,2.4,2,4.2,4.4,4.2c2.4-0.1,4.2-2,4.2-4.4l0,0V41.4
	c0-2.4-1.9-4.3-4.2-4.3c-2.4,0-4.3,1.9-4.3,4.2c-3.3-2.8-7.5-4.3-11.8-4.3c-10.5,0-18.8,8.6-18.8,19.6S112.2,76.3,122.8,76.3z
	 M112.7,56.7c0-6.5,4.8-11.6,11-11.6c6,0,10.7,4.8,11,11.1v0.5c0,6.5-4.8,11.6-11,11.6S112.7,63.2,112.7,56.7z"/>
<path class="st0" d="M220.8,71.9V54.1c0-5.5,3.2-9,8.1-9s8.1,3.5,8.1,9v17.8c0,2.4,1.8,4.3,4.2,4.3c0,0,0.1,0,0.1,0
	c2.4,0,4.3-2,4.3-4.3V54.4c0-10.2-6.5-17.3-15.8-17.3c-3.2,0-6.4,1.1-9,3V26.7c-0.1-2.4-2.1-4.2-4.5-4.1c-2.2,0.1-4,1.9-4.1,4.1
	v45.2c-0.1,2.4,1.7,4.4,4.1,4.5c2.4,0.1,4.4-1.7,4.5-4.1C220.8,72.2,220.8,72,220.8,71.9L220.8,71.9z"/>
<path class="st0" d="M124.4,86c-4.4,0-8.6,1.5-12,4.3c-0.1-2.4-2.2-4.2-4.6-4.1c-2.2,0.1-4,1.9-4.1,4.2v44.9c0,2.4,1.9,4.3,4.3,4.3
	s4.3-1.9,4.3-4.3v-13.9c3.4,2.8,7.6,4.3,12,4.3c10.6,0,18.9-8.7,18.9-19.8S135,86,124.4,86z M134.6,105.8c0,6.6-4.9,11.8-11.1,11.8
	s-11.1-5.2-11.1-11.8v-0.5c0.2-6.4,5-11.3,11.1-11.3S134.6,99.2,134.6,105.8L134.6,105.8z"/>
<path class="st0" d="M253.9,90.2c0-2.3-1.8-4.2-4.1-4.2c0,0-0.1,0-0.1,0h-25.4c-2.3,0-4.2,1.8-4.2,4.1c0,0,0,0.1,0,0.1
	c0,2.3,1.9,4.2,4.2,4.2h16.4l-20.3,24.1c-0.8,0.8-1.2,1.8-1.2,2.9c0,2.3,1.9,4.2,4.2,4.3h26.3c2.3,0,4.2-1.9,4.2-4.2
	c0-2.3-1.8-4.2-4.1-4.2c0,0-0.1,0-0.1,0h-17.3l20.2-24.1C253.4,92.3,253.8,91.3,253.9,90.2z"/>
<path class="st0" d="M298.8,90.4c0-2.4-1.9-4.3-4.3-4.4s-4.3,1.9-4.4,4.3c-3.4-2.8-7.6-4.4-12-4.3c-10.6,0-18.9,8.7-18.9,19.8
	s8.3,19.8,18.9,19.8c4.4,0,8.6-1.5,12-4.3v5.5c0.7-0.5,1.5-0.8,2.3-1c0.4-0.1,0.8-0.2,1.1-0.2c1.8-0.2,3.6,0.2,5.2,1.1v-5.4l0,0
	c0-0.1,0-0.1,0-0.2L298.8,90.4z M290.1,105.8c0,6.6-4.9,11.8-11.1,11.8s-11.1-5.2-11.1-11.8s4.9-11.8,11.1-11.8
	c6,0,10.8,4.8,11.1,11.3L290.1,105.8z"/>
<path class="st0" d="M77.5,37.1c-11.8,0-20.1,8.3-20.1,19.6s8.3,19.6,20.1,19.6c8,0,14.2-3.7,17.5-9.7c0.3-0.7,0-1.5-0.7-1.9
	c-0.2-0.1-0.4-0.1-0.6-0.1H88c-1,0-2,0.4-2.7,1.1c-1.9,1.7-4.5,2.4-7.8,2.4c-5.3,0-9.4-2.9-10.6-8.3h27.4c1.7,0,3.2-1.4,3.2-3.1
	c0,0,0,0,0,0C97.4,45.4,89.3,37.1,77.5,37.1z M67.1,52.7c1.4-4.9,5.4-7.5,10.4-7.5s9,2.5,10.4,7.5H67.1z"/>
<path class="st1" d="M297.9,136.7c-0.7-0.9-1.8-1.5-3-1.5h-6c-1.9,0.1-3.5,1.4-4,3.2c-15.4,51-79,56.5-107.8,24.6
	c-6.1-6.8-12-16.4-13.9-25.6c-0.6-2.8-4.1-2.4-6.2-2.2c-1.9,0.2-4.6,0.9-4,3.1c19.3,73.6,125.2,73.1,145.6,1.7
	C298.9,138.9,298.7,137.6,297.9,136.7z"/>
<path class="st0" d="M158.2,124c1.7,0,3.4,0.6,4.6,1.8l0,0V11.7c0-2.2-1.8-4-4-4h-2c-2.1,0-3.8,1.7-3.8,3.8v114.8
	C154.3,124.8,156.2,123.9,158.2,124z"/>
</svg>
